<svg width="362" height="393" viewBox="0 0 362 393" fill="none" xmlns="http://www.w3.org/2000/svg">
<g id="Mobile login-bro 1">
<g id="freepik--background-simple--inject-1--inject-45">
<path id="Vector" d="M296.21 80.958C278.197 36.3682 234.96 19.5793 200.845 49.518C187.523 61.198 179.212 79.7869 162.9 87.246C147.595 94.2414 128.206 92.1821 111.655 95.9706C76.4111 103.988 28.9601 134.406 32.5801 181.275C34.1657 201.806 46.9226 224.607 53.2286 243.817C60.4686 265.92 64.8126 293.571 83.9769 306.784C116.832 329.468 156.464 310.926 186.061 292.636C201.989 282.803 210.757 276.758 227.908 280.13C243.785 283.274 258.084 294.278 273.6 281.223C285.249 271.422 286.212 251.559 295.993 239.895C307.012 226.753 318.184 225.802 323.91 206.05C330.854 182.085 320.624 167.111 313.709 145.701C306.795 124.29 304.696 101.936 296.21 80.958Z" fill="#EAF0F2"/>
<g id="Group" opacity="0.7">
<path id="Vector_2" d="M296.21 80.958C278.197 36.3682 234.96 19.5793 200.845 49.518C187.523 61.198 179.212 79.7869 162.9 87.246C147.595 94.2414 128.206 92.1821 111.655 95.9706C76.4111 103.988 28.9601 134.406 32.5801 181.275C34.1657 201.806 46.9226 224.607 53.2286 243.817C60.4686 265.92 64.8126 293.571 83.9769 306.784C116.832 329.468 156.464 310.926 186.061 292.636C201.989 282.803 210.757 276.758 227.908 280.13C243.785 283.274 258.084 294.278 273.6 281.223C285.249 271.422 286.212 251.559 295.993 239.895C307.012 226.753 318.184 225.802 323.91 206.05C330.854 182.085 320.624 167.111 313.709 145.701C306.795 124.29 304.696 101.936 296.21 80.958Z" fill="#AEC48A"/>
</g>
</g>
<g id="freepik--Shadow--inject-1--inject-45">
<path id="Vector_3" d="M159.142 344.017C220.952 344.017 271.058 340.628 271.058 336.447C271.058 332.267 220.952 328.878 159.142 328.878C97.333 328.878 47.2266 332.267 47.2266 336.447C47.2266 340.628 97.333 344.017 159.142 344.017Z" fill="#37474F"/>
<path id="Vector_4" opacity="0.8" d="M159.142 344.017C220.952 344.017 271.058 340.628 271.058 336.447C271.058 332.267 220.952 328.878 159.142 328.878C97.333 328.878 47.2266 332.267 47.2266 336.447C47.2266 340.628 97.333 344.017 159.142 344.017Z" fill="white"/>
</g>
<g id="freepik--Device--inject-1--inject-45">
<path id="Vector_5" d="M243.242 48.6219H130.711C122.942 48.6219 116.644 55.4594 116.644 63.8939V321.812C116.644 330.246 122.942 337.084 130.711 337.084H243.242C251.011 337.084 257.31 330.246 257.31 321.812V63.8939C257.31 55.4594 251.011 48.6219 243.242 48.6219Z" fill="#263238"/>
<path id="Vector_6" d="M251.054 80.2977H122.892V305.408H251.054V80.2977Z" fill="white" stroke="#263238" stroke-width="1.33739" stroke-miterlimit="10"/>
<path id="Vector_7" d="M206.619 171.451C217.468 159.674 217.468 140.578 206.619 128.8C195.771 117.023 178.182 117.023 167.333 128.8C156.484 140.578 156.484 159.674 167.333 171.451C178.182 183.229 195.771 183.229 206.619 171.451Z" fill="#AEC48A"/>
<path id="Vector_8" d="M223.448 291.252H150.512C150.348 291.253 150.185 291.219 150.034 291.152C149.882 291.084 149.743 290.985 149.627 290.859C149.511 290.733 149.418 290.584 149.355 290.42C149.292 290.255 149.26 290.079 149.26 289.9C149.259 289.721 149.291 289.544 149.353 289.379C149.416 289.213 149.508 289.063 149.624 288.937C149.741 288.81 149.879 288.71 150.032 288.642C150.184 288.574 150.348 288.54 150.512 288.541H223.448C223.612 288.541 223.775 288.576 223.926 288.644C224.078 288.713 224.215 288.813 224.331 288.939C224.447 289.066 224.538 289.216 224.601 289.381C224.663 289.545 224.694 289.722 224.693 289.9C224.693 290.259 224.562 290.603 224.329 290.856C224.095 291.11 223.778 291.252 223.448 291.252Z" fill="#37474F"/>
<path id="Vector_9" d="M225.823 197.239H148.131C146.527 197.239 145.228 198.65 145.228 200.391V210.334C145.228 212.074 146.527 213.485 148.131 213.485H225.823C227.427 213.485 228.726 212.074 228.726 210.334V200.391C228.726 198.65 227.427 197.239 225.823 197.239Z" fill="#ACCEA0"/>
<path id="Vector_10" d="M225.823 227.626H148.131C146.527 227.626 145.228 229.037 145.228 230.777V240.72C145.228 242.461 146.527 243.872 148.131 243.872H225.823C227.427 243.872 228.726 242.461 228.726 240.72V230.777C228.726 229.037 227.427 227.626 225.823 227.626Z" fill="#ACCEA0"/>
<path id="Vector_11" d="M200.808 165.17L192.634 160.061V155.84C193.818 154.286 194.675 152.47 195.146 150.519C195.428 150.627 195.724 150.683 196.023 150.684C197.036 150.684 197.68 147.273 197.789 144.836C198.969 142.124 197.362 140.537 197.362 140.537C197.362 140.537 198.028 139.814 198.47 136.913C198.911 134.013 196.913 135.223 195.356 132.567C193.8 129.91 192.685 127.018 187.573 127.018C186.165 126.967 184.775 127.378 183.585 128.197C182.394 129.015 181.458 130.204 180.898 131.608C179.626 131.613 178.358 131.774 177.119 132.087C175.555 132.567 175.113 138.124 176.446 140.301C177.042 141.491 177.36 142.821 177.372 144.176C177.018 143.704 176.648 143.579 176.446 144.648C176.004 147.061 177.785 150.44 177.785 150.44L178.704 150.157C179.168 152.242 180.061 154.185 181.318 155.84V160.061L173.144 165.17C172.19 165.768 171.397 166.629 170.845 167.665C170.294 168.701 170.003 169.876 170.002 171.073V173.997C174.863 178.074 180.833 180.286 186.976 180.286C193.119 180.286 199.089 178.074 203.95 173.997V171.073C203.951 169.876 203.661 168.7 203.109 167.664C202.557 166.627 201.764 165.767 200.808 165.17Z" fill="#263238"/>
<path id="Vector_12" d="M155.805 239.832C155.618 239.829 155.439 239.748 155.306 239.604C155.234 239.535 155.177 239.45 155.139 239.355C155.1 239.261 155.08 239.158 155.081 239.054C155.083 238.912 155.121 238.774 155.19 238.653L156.493 236.39L153.952 236.476C153.856 236.483 153.76 236.467 153.67 236.43C153.58 236.394 153.499 236.337 153.43 236.264C153.312 236.12 153.247 235.934 153.247 235.741C153.247 235.548 153.312 235.362 153.43 235.218C153.497 235.142 153.578 235.083 153.668 235.045C153.759 235.007 153.855 234.991 153.952 234.998L156.457 235.1L155.168 232.845C155.098 232.722 155.06 232.58 155.059 232.436C155.059 232.332 155.078 232.229 155.117 232.135C155.156 232.04 155.213 231.955 155.284 231.886C155.417 231.742 155.596 231.661 155.783 231.658C155.907 231.659 156.027 231.698 156.131 231.77C156.235 231.842 156.318 231.945 156.37 232.067L157.608 234.495L158.831 232.082C158.889 231.954 158.979 231.844 159.09 231.767C159.201 231.689 159.329 231.646 159.461 231.642C159.553 231.643 159.643 231.664 159.727 231.705C159.81 231.745 159.885 231.804 159.946 231.878C160.079 232.028 160.152 232.228 160.149 232.436C160.149 232.571 160.116 232.704 160.055 232.821L158.745 235.1L161.286 234.998C161.382 234.991 161.479 235.007 161.569 235.045C161.659 235.083 161.74 235.142 161.807 235.218C161.93 235.358 161.998 235.544 161.995 235.737C161.995 235.932 161.928 236.12 161.807 236.264C161.739 236.337 161.657 236.394 161.567 236.43C161.477 236.467 161.382 236.483 161.286 236.476L158.73 236.39L160.004 238.63C160.076 238.755 160.113 238.899 160.113 239.046C160.113 239.255 160.037 239.455 159.901 239.602C159.765 239.749 159.581 239.832 159.389 239.832C159.265 239.83 159.144 239.789 159.041 239.714C158.938 239.638 158.858 239.532 158.81 239.408L157.601 237.05L156.399 239.408C156.345 239.531 156.262 239.636 156.157 239.711C156.052 239.786 155.93 239.828 155.805 239.832Z" fill="#930000"/>
<path id="Vector_13" d="M167.548 239.832C167.361 239.829 167.182 239.748 167.049 239.604C166.977 239.535 166.921 239.45 166.882 239.355C166.843 239.261 166.823 239.158 166.824 239.054C166.826 238.912 166.864 238.774 166.933 238.653L168.236 236.39L165.702 236.476C165.605 236.481 165.509 236.464 165.418 236.428C165.327 236.392 165.244 236.336 165.173 236.264C165.077 236.156 165.013 236.02 164.99 235.872C164.966 235.724 164.984 235.572 165.041 235.436C165.098 235.299 165.191 235.184 165.309 235.106C165.427 235.028 165.564 234.991 165.702 234.998L168.2 235.1L166.911 232.845C166.841 232.722 166.803 232.58 166.802 232.436C166.802 232.332 166.821 232.229 166.86 232.135C166.899 232.04 166.956 231.955 167.027 231.886C167.16 231.742 167.339 231.661 167.526 231.658C167.65 231.659 167.77 231.698 167.874 231.77C167.978 231.842 168.061 231.945 168.113 232.067L169.351 234.495L170.574 232.082C170.633 231.954 170.722 231.844 170.833 231.767C170.944 231.689 171.072 231.646 171.204 231.642C171.296 231.642 171.387 231.663 171.47 231.703C171.554 231.744 171.629 231.803 171.689 231.878C171.757 231.951 171.81 232.038 171.846 232.134C171.882 232.23 171.9 232.333 171.899 232.436C171.897 232.572 171.862 232.704 171.798 232.821L170.488 235.1L173.036 235.014C173.131 235.007 173.227 235.023 173.316 235.061C173.405 235.099 173.485 235.158 173.55 235.234C173.674 235.373 173.741 235.56 173.738 235.753C173.738 235.948 173.671 236.135 173.55 236.279C173.483 236.353 173.403 236.409 173.314 236.446C173.226 236.482 173.131 236.498 173.036 236.492L170.473 236.405L171.747 238.645C171.819 238.77 171.856 238.915 171.856 239.062C171.856 239.27 171.78 239.47 171.644 239.618C171.508 239.765 171.324 239.848 171.132 239.848C171.008 239.846 170.887 239.805 170.784 239.73C170.681 239.654 170.601 239.548 170.553 239.423L169.344 237.065L168.142 239.423C168.087 239.544 168.002 239.645 167.897 239.718C167.793 239.79 167.672 239.829 167.548 239.832Z" fill="#930000"/>
<path id="Vector_14" d="M179.298 239.832C179.108 239.831 178.926 239.749 178.791 239.604C178.72 239.535 178.663 239.45 178.625 239.355C178.586 239.261 178.566 239.158 178.567 239.054C178.569 238.912 178.607 238.774 178.676 238.653L179.979 236.39L177.445 236.476C177.308 236.482 177.173 236.444 177.057 236.366C176.941 236.288 176.848 236.175 176.792 236.04C176.735 235.905 176.716 235.755 176.739 235.609C176.761 235.462 176.823 235.326 176.916 235.218C176.985 235.143 177.067 235.084 177.158 235.046C177.25 235.008 177.347 234.992 177.445 234.998L179.943 235.1L178.654 232.845C178.584 232.722 178.546 232.58 178.545 232.436C178.547 232.333 178.568 232.231 178.607 232.137C178.646 232.042 178.701 231.957 178.77 231.886C178.904 231.741 179.087 231.659 179.276 231.658C179.399 231.66 179.518 231.7 179.62 231.772C179.722 231.844 179.804 231.946 179.856 232.067L181.094 234.495L182.317 232.082C182.375 231.954 182.465 231.844 182.576 231.767C182.687 231.689 182.815 231.646 182.947 231.642C183.039 231.642 183.129 231.663 183.213 231.703C183.297 231.744 183.371 231.803 183.432 231.878C183.499 231.951 183.552 232.038 183.588 232.134C183.624 232.23 183.643 232.333 183.642 232.436C183.64 232.572 183.605 232.704 183.541 232.821L182.23 235.1L184.779 234.998C184.873 234.988 184.967 235 185.056 235.033C185.145 235.066 185.227 235.119 185.296 235.189C185.364 235.259 185.418 235.344 185.454 235.439C185.49 235.533 185.506 235.635 185.503 235.737C185.504 235.931 185.44 236.118 185.322 236.264C185.254 236.337 185.172 236.394 185.082 236.43C184.992 236.467 184.896 236.483 184.801 236.476L182.245 236.39L183.512 238.63C183.583 238.755 183.621 238.899 183.62 239.046C183.618 239.149 183.597 239.251 183.559 239.346C183.52 239.44 183.465 239.525 183.396 239.596C183.333 239.67 183.257 239.729 183.172 239.769C183.088 239.81 182.996 239.831 182.904 239.832C182.781 239.83 182.661 239.788 182.559 239.713C182.457 239.638 182.378 239.531 182.332 239.408L181.115 237.05L179.914 239.408C179.859 239.535 179.772 239.643 179.663 239.718C179.554 239.794 179.427 239.833 179.298 239.832Z" fill="#930000"/>
<path id="Vector_15" d="M191.042 239.832C190.852 239.831 190.67 239.749 190.535 239.604C190.399 239.459 190.321 239.261 190.318 239.054C190.316 238.913 190.351 238.774 190.419 238.653L191.722 236.39L189.188 236.476C189.092 236.481 188.995 236.464 188.904 236.428C188.814 236.392 188.73 236.336 188.66 236.264C188.542 236.12 188.477 235.934 188.477 235.741C188.477 235.548 188.542 235.362 188.66 235.218C188.73 235.145 188.813 235.088 188.903 235.05C188.994 235.012 189.091 234.995 189.188 234.998L191.693 235.1L190.412 232.845C190.342 232.722 190.304 232.58 190.303 232.436C190.306 232.333 190.327 232.231 190.365 232.137C190.404 232.042 190.459 231.957 190.528 231.886C190.663 231.741 190.845 231.659 191.035 231.658C191.158 231.659 191.279 231.698 191.382 231.77C191.486 231.842 191.569 231.945 191.621 232.067L192.852 234.495L194.075 232.082C194.133 231.954 194.223 231.844 194.334 231.767C194.445 231.689 194.573 231.646 194.705 231.642C194.797 231.642 194.888 231.663 194.971 231.703C195.055 231.744 195.13 231.803 195.19 231.878C195.257 231.951 195.311 232.038 195.347 232.134C195.383 232.23 195.401 232.333 195.4 232.436C195.398 232.572 195.363 232.704 195.299 232.821L193.988 235.1L196.537 234.998C196.631 234.988 196.725 235 196.814 235.033C196.904 235.066 196.985 235.119 197.054 235.189C197.122 235.259 197.176 235.344 197.212 235.439C197.248 235.533 197.265 235.635 197.261 235.737C197.262 235.931 197.198 236.118 197.08 236.264C197.012 236.337 196.93 236.394 196.84 236.43C196.75 236.467 196.654 236.483 196.559 236.476L194.003 236.39L195.27 238.63C195.341 238.755 195.379 238.899 195.379 239.046C195.379 239.15 195.36 239.253 195.321 239.348C195.282 239.442 195.225 239.527 195.154 239.596C195.091 239.67 195.015 239.729 194.93 239.769C194.846 239.81 194.754 239.831 194.662 239.832C194.539 239.83 194.419 239.788 194.317 239.713C194.216 239.638 194.137 239.531 194.09 239.408L192.874 237.05L191.672 239.408C191.616 239.538 191.527 239.647 191.415 239.723C191.303 239.798 191.174 239.836 191.042 239.832Z" fill="#930000"/>
<path id="Vector_16" d="M202.785 239.832C202.595 239.831 202.413 239.749 202.278 239.604C202.166 239.481 202.095 239.321 202.075 239.149C202.055 238.977 202.089 238.803 202.17 238.653L203.466 236.39L200.932 236.476C200.835 236.481 200.738 236.464 200.647 236.428C200.557 236.392 200.474 236.336 200.403 236.264C200.285 236.12 200.22 235.934 200.22 235.741C200.22 235.548 200.285 235.362 200.403 235.218C200.473 235.145 200.556 235.088 200.647 235.05C200.737 235.012 200.834 234.995 200.932 234.998L203.437 235.1L202.148 232.845C202.078 232.722 202.04 232.58 202.039 232.436C202.042 232.229 202.12 232.031 202.256 231.886C202.391 231.741 202.573 231.659 202.763 231.658C202.887 231.659 203.007 231.698 203.111 231.77C203.215 231.842 203.298 231.945 203.35 232.067L204.58 234.495L205.804 232.082C205.862 231.954 205.951 231.844 206.062 231.767C206.174 231.689 206.302 231.646 206.434 231.642C206.527 231.642 206.618 231.662 206.703 231.703C206.788 231.744 206.864 231.803 206.926 231.878C207.059 232.028 207.132 232.228 207.129 232.436C207.126 232.572 207.091 232.704 207.028 232.821L205.717 235.1L208.266 234.998C208.359 234.988 208.454 235 208.543 235.033C208.632 235.066 208.714 235.119 208.783 235.189C208.851 235.259 208.905 235.344 208.941 235.439C208.977 235.533 208.993 235.635 208.99 235.737C208.991 235.931 208.927 236.118 208.809 236.264C208.74 236.337 208.659 236.394 208.569 236.43C208.479 236.467 208.383 236.483 208.287 236.476L205.732 236.39L206.999 238.63C207.07 238.755 207.108 238.899 207.107 239.046C207.108 239.15 207.088 239.253 207.05 239.348C207.011 239.442 206.954 239.527 206.883 239.596C206.82 239.67 206.744 239.729 206.659 239.769C206.574 239.81 206.483 239.831 206.39 239.832C206.267 239.83 206.148 239.788 206.046 239.713C205.944 239.638 205.865 239.531 205.819 239.408L204.602 237.05L203.4 239.408C203.346 239.535 203.259 239.643 203.15 239.718C203.041 239.794 202.914 239.833 202.785 239.832Z" fill="#930000"/>
<path id="Vector_17" d="M214.529 239.832C214.341 239.829 214.162 239.748 214.029 239.604C213.958 239.535 213.901 239.45 213.862 239.355C213.824 239.261 213.804 239.158 213.805 239.054C213.807 238.912 213.844 238.774 213.913 238.653L215.209 236.39L212.675 236.476C212.582 236.484 212.488 236.47 212.4 236.436C212.312 236.403 212.231 236.349 212.163 236.28C212.095 236.21 212.041 236.126 212.005 236.033C211.968 235.939 211.95 235.839 211.951 235.737C211.951 235.641 211.968 235.546 212.001 235.457C212.035 235.368 212.084 235.287 212.147 235.218C212.213 235.142 212.295 235.083 212.385 235.045C212.475 235.007 212.572 234.991 212.668 234.998L215.173 235.1L213.884 232.845C213.814 232.722 213.777 232.58 213.776 232.436C213.778 232.229 213.857 232.031 213.993 231.886C214.128 231.741 214.31 231.659 214.5 231.658C214.623 231.659 214.744 231.698 214.847 231.77C214.951 231.842 215.034 231.945 215.086 232.067L216.317 234.495L217.548 232.082C217.605 231.955 217.693 231.846 217.803 231.769C217.913 231.691 218.04 231.648 218.17 231.642C218.263 231.642 218.355 231.662 218.44 231.703C218.525 231.744 218.601 231.803 218.663 231.878C218.796 232.028 218.868 232.228 218.865 232.436C218.865 232.571 218.833 232.704 218.771 232.821L217.461 235.1L220.002 234.998C220.099 234.991 220.195 235.007 220.285 235.045C220.375 235.083 220.457 235.142 220.523 235.218C220.647 235.358 220.714 235.544 220.712 235.737C220.711 235.932 220.644 236.12 220.523 236.264C220.455 236.337 220.374 236.394 220.284 236.43C220.194 236.467 220.098 236.483 220.002 236.476L217.446 236.39L218.713 238.63C218.785 238.755 218.822 238.899 218.822 239.046C218.819 239.254 218.741 239.451 218.605 239.596C218.473 239.743 218.294 239.827 218.105 239.832C217.982 239.83 217.862 239.788 217.761 239.713C217.659 239.638 217.58 239.531 217.533 239.408L216.317 237.05L215.115 239.408C215.063 239.53 214.981 239.635 214.877 239.71C214.774 239.785 214.653 239.827 214.529 239.832Z" fill="#930000"/>
<g id="Vector_18" style="mix-blend-mode:multiply">
<path d="M251.054 80.5964H122.892V89.3132H251.054V80.5964Z" fill="#37474F"/>
</g>
<path id="Vector_19" d="M200.91 64.5384H173.036C172.532 64.5384 172.05 64.3215 171.694 63.9353C171.339 63.5491 171.139 63.0253 171.139 62.4791C171.139 61.933 171.339 61.4092 171.694 61.023C172.05 60.6368 172.532 60.4198 173.036 60.4198H200.91C201.413 60.4198 201.895 60.6368 202.251 61.023C202.607 61.4092 202.806 61.933 202.806 62.4791C202.806 63.0253 202.607 63.5491 202.251 63.9353C201.895 64.3215 201.413 64.5384 200.91 64.5384Z" fill="#37474F" stroke="#263238" stroke-width="1.33739" stroke-linecap="round" stroke-linejoin="round"/>
<path id="Vector_20" d="M194.575 318.126C194.577 316.493 194.132 314.896 193.297 313.538C192.462 312.179 191.275 311.12 189.886 310.494C188.496 309.869 186.967 309.705 185.492 310.023C184.016 310.341 182.661 311.127 181.598 312.282C180.534 313.437 179.81 314.908 179.517 316.51C179.224 318.111 179.375 319.771 179.951 321.28C180.527 322.788 181.503 324.077 182.754 324.983C184.005 325.889 185.476 326.372 186.98 326.371C188.994 326.369 190.925 325.499 192.349 323.954C193.772 322.408 194.573 320.312 194.575 318.126Z" fill="#37474F"/>
<path id="Vector_21" d="M190.832 313.944H183.129V322.307H190.832V313.944Z" fill="#37474F" stroke="#263238" stroke-width="1.33739" stroke-linecap="round" stroke-linejoin="round"/>
</g>
<g id="freepik--Plant--inject-1--inject-45">
<path id="Vector_22" d="M278.74 223.224C278.74 223.224 268.647 195.384 277.632 192.075C286.986 188.624 286.573 207.009 286.211 215.969C285.451 235.116 283.503 238.677 282.048 234L278.74 223.224ZM275.706 244.941C278.479 248.871 279.261 244.8 274.258 226.415C271.912 217.769 266.815 200.281 258.996 206.844C251.488 213.132 269.357 235.926 269.357 235.926L275.706 244.941ZM270.348 260.897C272.991 263.444 273.042 260.229 266.765 246.953C263.818 240.736 257.584 228.152 252.48 234.377C247.579 240.382 264.281 254.978 264.281 254.978L270.348 260.897ZM264.556 279.871C267.199 282.425 267.25 279.203 260.973 265.935C258.026 259.718 251.792 247.126 246.688 253.359C241.816 259.38 258.468 273.976 258.468 273.976L264.556 279.871ZM281.281 241.247C277.053 243.039 280.412 244.988 298.07 244.933C306.353 244.933 323.266 244.525 319.66 234.535C316.207 224.937 291.055 237.16 291.055 237.16L281.281 241.247ZM276.466 254.012C271.992 254.853 274.931 257.494 292.249 261.251C300.365 263.019 317.01 266.281 315.309 255.749C313.68 245.594 286.79 252.149 286.79 252.149L276.466 254.012ZM271.08 269.598C267.271 270.195 269.704 272.498 284.264 276.114C291.091 277.812 305.1 280.995 303.884 272.011C302.726 263.365 279.847 268.254 279.847 268.254L271.08 269.598ZM266.989 284.037C263.26 285.066 265.903 287.079 280.745 288.996C287.695 289.892 301.937 291.449 299.859 282.653C297.853 274.212 275.583 281.687 275.583 281.687L266.989 284.037ZM288.81 225.582C286.638 230.864 291.149 230.062 306.483 215.537C313.665 208.722 328.073 194.464 316.663 187.367C305.709 180.544 293.929 213.462 293.929 213.462L288.81 225.582ZM267.554 302.846C265.259 304.3 267.51 304.866 278.037 302.586C282.975 301.525 293.017 299.167 289.621 294.514C286.334 290.034 272.868 299.466 272.868 299.466L267.554 302.846Z" fill="#395F1C"/>
<path id="Vector_23" opacity="0.3" d="M278.74 223.224C278.74 223.224 268.647 195.384 277.632 192.075C286.986 188.624 286.573 207.009 286.211 215.969C285.451 235.116 283.503 238.677 282.048 234L278.74 223.224ZM275.706 244.941C278.479 248.871 279.261 244.8 274.258 226.415C271.912 217.769 266.815 200.281 258.996 206.844C251.488 213.132 269.357 235.926 269.357 235.926L275.706 244.941ZM270.348 260.897C272.991 263.444 273.042 260.229 266.765 246.953C263.818 240.736 257.584 228.152 252.48 234.377C247.579 240.382 264.281 254.978 264.281 254.978L270.348 260.897ZM264.556 279.871C267.199 282.425 267.25 279.203 260.973 265.935C258.026 259.718 251.792 247.126 246.688 253.359C241.816 259.38 258.468 273.976 258.468 273.976L264.556 279.871ZM281.281 241.247C277.053 243.039 280.412 244.988 298.07 244.933C306.353 244.933 323.266 244.525 319.66 234.535C316.207 224.937 291.055 237.16 291.055 237.16L281.281 241.247ZM276.466 254.012C271.992 254.853 274.931 257.494 292.249 261.251C300.365 263.019 317.01 266.281 315.309 255.749C313.68 245.594 286.79 252.149 286.79 252.149L276.466 254.012ZM271.08 269.598C267.271 270.195 269.704 272.498 284.264 276.114C291.091 277.812 305.1 280.995 303.884 272.011C302.726 263.365 279.847 268.254 279.847 268.254L271.08 269.598ZM266.989 284.037C263.26 285.066 265.903 287.079 280.745 288.996C287.695 289.892 301.937 291.449 299.859 282.653C297.853 274.212 275.583 281.687 275.583 281.687L266.989 284.037ZM288.81 225.582C286.638 230.864 291.149 230.062 306.483 215.537C313.665 208.722 328.073 194.464 316.663 187.367C305.709 180.544 293.929 213.462 293.929 213.462L288.81 225.582ZM267.554 302.846C265.259 304.3 267.51 304.866 278.037 302.586C282.975 301.525 293.017 299.167 289.621 294.514C286.334 290.034 272.868 299.466 272.868 299.466L267.554 302.846Z" fill="#395F1C"/>
<path id="Vector_24" d="M283.192 236.185L281.433 204.407L283.192 236.185ZM277.625 246.67L266.504 219.341L277.625 246.67ZM306.324 238.724L279.674 242.874L306.324 238.724ZM271.862 261.4L257.433 241.302L271.862 261.4ZM274.396 255.238L294.277 256.322L274.396 255.238ZM269.69 270.651L284.894 272.286L269.69 270.651ZM266.019 280.445L258.468 268.112L266.019 280.445ZM265.15 284.799L283.026 284.98L265.15 284.799ZM261.53 321.207C261.65 321.197 261.761 321.136 261.84 321.037C261.919 320.939 261.958 320.81 261.95 320.68C260.814 302.146 267.417 271.791 278.009 246.875C284.778 230.95 311.313 199.652 311.595 199.337C311.68 199.245 311.728 199.119 311.728 198.988C311.728 198.857 311.68 198.731 311.595 198.638C311.553 198.592 311.504 198.556 311.449 198.531C311.394 198.507 311.336 198.494 311.276 198.494C311.217 198.494 311.159 198.507 311.104 198.531C311.049 198.556 311 198.592 310.958 198.638C310.69 198.952 284.047 230.369 277.219 246.435C266.432 271.956 259.916 301.761 261.074 320.743C261.083 320.868 261.135 320.985 261.219 321.071C261.304 321.157 261.415 321.205 261.53 321.207ZM283.185 236.672C283.305 236.664 283.417 236.605 283.497 236.508C283.577 236.411 283.618 236.284 283.612 236.154L281.882 204.36C281.879 204.295 281.865 204.232 281.839 204.173C281.813 204.115 281.777 204.062 281.733 204.019C281.688 203.976 281.636 203.943 281.58 203.922C281.523 203.901 281.464 203.892 281.404 203.896C281.284 203.904 281.172 203.963 281.093 204.06C281.013 204.158 280.971 204.285 280.977 204.415L282.736 236.193C282.742 236.318 282.792 236.436 282.875 236.522C282.959 236.609 283.07 236.657 283.185 236.657V236.672ZM277.784 247.118C277.893 247.065 277.978 246.968 278.021 246.847C278.064 246.727 278.062 246.593 278.016 246.474L266.888 219.145C266.84 219.026 266.75 218.933 266.639 218.885C266.528 218.838 266.404 218.841 266.294 218.893C266.185 218.945 266.099 219.042 266.056 219.163C266.012 219.284 266.015 219.419 266.063 219.538L277.183 246.867C277.218 246.955 277.276 247.029 277.349 247.082C277.422 247.135 277.508 247.164 277.596 247.166C277.671 247.17 277.746 247.154 277.813 247.118H277.784ZM279.71 243.346L306.346 239.211C306.41 239.21 306.474 239.194 306.532 239.164C306.59 239.134 306.642 239.091 306.683 239.038C306.725 238.985 306.756 238.923 306.774 238.856C306.792 238.789 306.797 238.718 306.788 238.649C306.78 238.58 306.758 238.513 306.724 238.454C306.689 238.395 306.644 238.344 306.591 238.305C306.537 238.266 306.477 238.24 306.414 238.228C306.35 238.216 306.285 238.219 306.223 238.237L279.587 242.371C279.468 242.379 279.357 242.439 279.278 242.536C279.199 242.633 279.159 242.76 279.167 242.89C279.175 243.019 279.229 243.14 279.319 243.225C279.409 243.311 279.526 243.354 279.645 243.346H279.71ZM272.115 261.793C272.21 261.712 272.271 261.594 272.286 261.465C272.301 261.335 272.268 261.205 272.195 261.101L257.758 240.964C257.684 240.86 257.575 240.792 257.455 240.775C257.335 240.758 257.214 240.793 257.118 240.874C257.022 240.954 256.959 241.072 256.943 241.203C256.928 241.333 256.96 241.465 257.034 241.569L271.5 261.738C271.542 261.797 271.596 261.844 271.657 261.877C271.719 261.91 271.786 261.927 271.855 261.927C271.963 261.921 272.065 261.873 272.144 261.793H272.115ZM294.675 256.346C294.679 256.216 294.636 256.089 294.554 255.994C294.473 255.898 294.36 255.841 294.241 255.835L274.396 254.743C274.284 254.751 274.18 254.803 274.101 254.89C274.023 254.977 273.977 255.092 273.972 255.213C273.966 255.334 274.002 255.453 274.072 255.548C274.142 255.642 274.242 255.705 274.352 255.725L294.233 256.818C294.353 256.822 294.47 256.775 294.558 256.687C294.646 256.598 294.698 256.476 294.704 256.346H294.675ZM285.314 272.333C285.321 272.269 285.316 272.203 285.299 272.141C285.282 272.078 285.254 272.02 285.217 271.969C285.179 271.919 285.132 271.877 285.079 271.846C285.026 271.816 284.968 271.797 284.908 271.791L269.704 270.164C269.645 270.157 269.586 270.164 269.529 270.182C269.472 270.201 269.419 270.232 269.374 270.273C269.328 270.313 269.29 270.364 269.262 270.421C269.235 270.478 269.217 270.54 269.212 270.604C269.202 270.733 269.239 270.861 269.314 270.961C269.39 271.061 269.499 271.125 269.617 271.139L284.821 272.773H284.865C284.982 272.782 285.097 272.741 285.186 272.659C285.276 272.577 285.332 272.46 285.343 272.333H285.314ZM266.236 280.853C266.337 280.781 266.407 280.669 266.431 280.541C266.456 280.413 266.433 280.279 266.367 280.17L258.852 267.837C258.783 267.731 258.679 267.658 258.561 267.633C258.444 267.608 258.322 267.633 258.222 267.704C258.121 267.776 258.051 267.888 258.027 268.016C258.002 268.145 258.025 268.278 258.091 268.388L265.606 280.72C265.649 280.787 265.707 280.842 265.774 280.881C265.84 280.919 265.915 280.939 265.99 280.94C266.088 280.946 266.185 280.915 266.265 280.853H266.236ZM283.482 284.98C283.48 284.851 283.433 284.727 283.349 284.635C283.265 284.543 283.152 284.489 283.033 284.485L265.158 284.304C265.039 284.304 264.924 284.355 264.84 284.447C264.756 284.538 264.709 284.662 264.709 284.791C264.707 284.856 264.717 284.921 264.739 284.982C264.761 285.042 264.793 285.097 264.835 285.143C264.877 285.19 264.928 285.226 264.983 285.251C265.038 285.276 265.098 285.288 265.158 285.287L283.033 285.467C283.094 285.47 283.155 285.46 283.213 285.437C283.27 285.414 283.323 285.379 283.367 285.334C283.412 285.288 283.448 285.233 283.472 285.173C283.497 285.112 283.51 285.046 283.511 284.98H283.482ZM259.496 313.999C259.532 313.913 262.58 304.795 271.746 302.618C271.864 302.59 271.967 302.512 272.032 302.401C272.097 302.291 272.119 302.157 272.094 302.028C272.064 301.903 271.992 301.794 271.89 301.725C271.789 301.656 271.667 301.633 271.551 301.659C261.885 303.954 258.678 313.583 258.642 313.677C258.604 313.801 258.613 313.936 258.666 314.053C258.718 314.171 258.811 314.261 258.924 314.306H259.069C259.165 314.315 259.261 314.29 259.344 314.234C259.426 314.179 259.489 314.097 259.525 313.999H259.496ZM261.53 321.207C261.65 321.197 261.761 321.136 261.84 321.037C261.919 320.939 261.958 320.81 261.95 320.68C260.814 302.146 267.417 271.791 278.009 246.875C284.778 230.95 311.313 199.652 311.595 199.337C311.68 199.245 311.728 199.119 311.728 198.988C311.728 198.857 311.68 198.731 311.595 198.638C311.553 198.592 311.504 198.556 311.449 198.531C311.394 198.507 311.336 198.494 311.276 198.494C311.217 198.494 311.159 198.507 311.104 198.531C311.049 198.556 311 198.592 310.958 198.638C310.69 198.952 284.047 230.369 277.219 246.435C266.432 271.956 259.916 301.761 261.074 320.743C261.083 320.868 261.135 320.985 261.219 321.071C261.304 321.157 261.415 321.205 261.53 321.207ZM283.185 236.672C283.305 236.664 283.417 236.605 283.497 236.508C283.577 236.411 283.618 236.284 283.612 236.154L281.882 204.36C281.879 204.295 281.865 204.232 281.839 204.173C281.813 204.115 281.777 204.062 281.733 204.019C281.688 203.976 281.636 203.943 281.58 203.922C281.523 203.901 281.464 203.892 281.404 203.896C281.284 203.904 281.172 203.963 281.093 204.06C281.013 204.158 280.971 204.285 280.977 204.415L282.736 236.193C282.742 236.318 282.792 236.436 282.875 236.522C282.959 236.609 283.07 236.657 283.185 236.657V236.672ZM277.784 247.118C277.893 247.065 277.978 246.968 278.021 246.847C278.064 246.727 278.062 246.593 278.016 246.474L266.888 219.145C266.84 219.026 266.75 218.933 266.639 218.885C266.528 218.838 266.404 218.841 266.294 218.893C266.185 218.945 266.099 219.042 266.056 219.163C266.012 219.284 266.015 219.419 266.063 219.538L277.183 246.867C277.218 246.955 277.276 247.029 277.349 247.082C277.422 247.135 277.508 247.164 277.596 247.166C277.671 247.17 277.746 247.154 277.813 247.118H277.784ZM279.71 243.346L306.346 239.211C306.41 239.21 306.474 239.194 306.532 239.164C306.59 239.134 306.642 239.091 306.683 239.038C306.725 238.985 306.756 238.923 306.774 238.856C306.792 238.789 306.797 238.718 306.788 238.649C306.78 238.58 306.758 238.513 306.724 238.454C306.689 238.395 306.644 238.344 306.591 238.305C306.537 238.266 306.477 238.24 306.414 238.228C306.35 238.216 306.285 238.219 306.223 238.237L279.587 242.371C279.468 242.379 279.357 242.439 279.278 242.536C279.199 242.633 279.159 242.76 279.167 242.89C279.175 243.019 279.229 243.14 279.319 243.225C279.409 243.311 279.526 243.354 279.645 243.346H279.71ZM272.115 261.793C272.21 261.712 272.271 261.594 272.286 261.465C272.301 261.335 272.268 261.205 272.195 261.101L257.758 240.964C257.722 240.912 257.676 240.869 257.624 240.837C257.572 240.804 257.515 240.783 257.455 240.775C257.396 240.766 257.335 240.771 257.277 240.788C257.219 240.805 257.165 240.834 257.118 240.874C257.07 240.913 257.03 240.963 257 241.019C256.97 241.076 256.951 241.138 256.943 241.203C256.936 241.267 256.94 241.333 256.955 241.396C256.971 241.459 256.998 241.518 257.034 241.569L271.5 261.738C271.542 261.797 271.596 261.844 271.657 261.877C271.719 261.91 271.786 261.927 271.855 261.927C271.963 261.921 272.065 261.873 272.144 261.793H272.115ZM294.675 256.346C294.679 256.216 294.636 256.089 294.554 255.994C294.473 255.898 294.36 255.841 294.241 255.835L274.396 254.743C274.284 254.751 274.18 254.803 274.101 254.89C274.023 254.977 273.977 255.092 273.972 255.213C273.966 255.334 274.002 255.453 274.072 255.548C274.142 255.642 274.242 255.705 274.352 255.725L294.233 256.818C294.353 256.822 294.47 256.775 294.558 256.687C294.646 256.598 294.698 256.476 294.704 256.346H294.675ZM285.314 272.333C285.321 272.269 285.316 272.203 285.299 272.141C285.282 272.078 285.254 272.02 285.217 271.969C285.179 271.919 285.132 271.877 285.079 271.846C285.026 271.816 284.968 271.797 284.908 271.791L269.704 270.164C269.645 270.157 269.586 270.164 269.529 270.182C269.472 270.201 269.419 270.232 269.374 270.273C269.328 270.313 269.29 270.364 269.262 270.421C269.235 270.478 269.217 270.54 269.212 270.604C269.202 270.733 269.239 270.861 269.314 270.961C269.39 271.061 269.499 271.125 269.617 271.139L284.821 272.773H284.865C284.982 272.782 285.097 272.741 285.186 272.659C285.276 272.577 285.332 272.46 285.343 272.333H285.314ZM266.236 280.853C266.337 280.781 266.407 280.669 266.431 280.541C266.456 280.413 266.433 280.279 266.367 280.17L258.852 267.837C258.783 267.731 258.679 267.658 258.561 267.633C258.444 267.608 258.322 267.633 258.222 267.704C258.121 267.776 258.051 267.888 258.027 268.016C258.002 268.145 258.025 268.278 258.091 268.388L265.606 280.72C265.649 280.787 265.707 280.842 265.774 280.881C265.84 280.919 265.915 280.939 265.99 280.94C266.088 280.946 266.185 280.915 266.265 280.853H266.236ZM283.482 284.98C283.48 284.851 283.433 284.727 283.349 284.635C283.265 284.543 283.152 284.489 283.033 284.485L265.158 284.304C265.039 284.304 264.924 284.355 264.84 284.447C264.756 284.538 264.709 284.662 264.709 284.791C264.707 284.856 264.717 284.921 264.739 284.982C264.761 285.042 264.793 285.097 264.835 285.143C264.877 285.19 264.928 285.226 264.983 285.251C265.038 285.276 265.098 285.288 265.158 285.287L283.033 285.467C283.094 285.47 283.155 285.46 283.213 285.437C283.27 285.414 283.323 285.379 283.367 285.334C283.412 285.288 283.448 285.233 283.472 285.173C283.497 285.112 283.51 285.046 283.511 284.98H283.482ZM259.496 313.999C259.532 313.913 262.58 304.795 271.746 302.618C271.864 302.59 271.967 302.512 272.032 302.401C272.097 302.291 272.119 302.157 272.094 302.028C272.064 301.903 271.992 301.794 271.89 301.725C271.789 301.656 271.667 301.633 271.551 301.659C261.885 303.954 258.678 313.583 258.642 313.677C258.604 313.801 258.613 313.936 258.666 314.053C258.718 314.171 258.811 314.261 258.924 314.306H259.069C259.165 314.315 259.261 314.29 259.344 314.234C259.426 314.179 259.489 314.097 259.525 313.999H259.496Z" fill="#395F1C"/>
<path id="Vector_25" opacity="0.2" d="M283.192 236.185L281.433 204.407L283.192 236.185ZM277.625 246.67L266.504 219.341L277.625 246.67ZM306.324 238.724L279.674 242.874L306.324 238.724ZM271.862 261.4L257.433 241.302L271.862 261.4ZM274.396 255.238L294.277 256.322L274.396 255.238ZM269.69 270.651L284.894 272.286L269.69 270.651ZM266.019 280.445L258.468 268.112L266.019 280.445ZM265.15 284.799L283.026 284.98L265.15 284.799ZM261.53 321.207C261.65 321.197 261.761 321.136 261.84 321.037C261.919 320.939 261.958 320.81 261.95 320.68C260.814 302.146 267.417 271.791 278.009 246.875C284.778 230.95 311.313 199.652 311.595 199.337C311.68 199.245 311.728 199.119 311.728 198.988C311.728 198.857 311.68 198.731 311.595 198.638C311.553 198.592 311.504 198.556 311.449 198.531C311.394 198.507 311.336 198.494 311.276 198.494C311.217 198.494 311.159 198.507 311.104 198.531C311.049 198.556 311 198.592 310.958 198.638C310.69 198.952 284.047 230.369 277.219 246.435C266.432 271.956 259.916 301.761 261.074 320.743C261.083 320.868 261.135 320.985 261.219 321.071C261.304 321.157 261.415 321.205 261.53 321.207ZM283.185 236.672C283.305 236.664 283.417 236.605 283.497 236.508C283.577 236.411 283.618 236.284 283.612 236.154L281.882 204.36C281.879 204.295 281.865 204.232 281.839 204.173C281.813 204.115 281.777 204.062 281.733 204.019C281.688 203.976 281.636 203.943 281.58 203.922C281.523 203.901 281.464 203.892 281.404 203.896C281.284 203.904 281.172 203.963 281.093 204.06C281.013 204.158 280.971 204.285 280.977 204.415L282.736 236.193C282.742 236.318 282.792 236.436 282.875 236.522C282.959 236.609 283.07 236.657 283.185 236.657V236.672ZM277.784 247.118C277.893 247.065 277.978 246.968 278.021 246.847C278.064 246.727 278.062 246.593 278.016 246.474L266.888 219.145C266.84 219.026 266.75 218.933 266.639 218.885C266.528 218.838 266.404 218.841 266.294 218.893C266.185 218.945 266.099 219.042 266.056 219.163C266.012 219.284 266.015 219.419 266.063 219.538L277.183 246.867C277.218 246.955 277.276 247.029 277.349 247.082C277.422 247.135 277.508 247.164 277.596 247.166C277.671 247.17 277.746 247.154 277.813 247.118H277.784ZM279.71 243.346L306.346 239.211C306.41 239.21 306.474 239.194 306.532 239.164C306.59 239.134 306.642 239.091 306.683 239.038C306.725 238.985 306.756 238.923 306.774 238.856C306.792 238.789 306.797 238.718 306.788 238.649C306.78 238.58 306.758 238.513 306.724 238.454C306.689 238.395 306.644 238.344 306.591 238.305C306.537 238.266 306.477 238.24 306.414 238.228C306.35 238.216 306.285 238.219 306.223 238.237L279.587 242.371C279.468 242.379 279.357 242.439 279.278 242.536C279.199 242.633 279.159 242.76 279.167 242.89C279.175 243.019 279.229 243.14 279.319 243.225C279.409 243.311 279.526 243.354 279.645 243.346H279.71ZM272.115 261.793C272.21 261.712 272.271 261.594 272.286 261.465C272.301 261.335 272.268 261.205 272.195 261.101L257.758 240.964C257.684 240.86 257.575 240.792 257.455 240.775C257.335 240.758 257.214 240.793 257.118 240.874C257.022 240.954 256.959 241.072 256.943 241.203C256.928 241.333 256.96 241.465 257.034 241.569L271.5 261.738C271.542 261.797 271.596 261.844 271.657 261.877C271.719 261.91 271.786 261.927 271.855 261.927C271.963 261.921 272.065 261.873 272.144 261.793H272.115ZM294.675 256.346C294.679 256.216 294.636 256.089 294.554 255.994C294.473 255.898 294.36 255.841 294.241 255.835L274.396 254.743C274.284 254.751 274.18 254.803 274.101 254.89C274.023 254.977 273.977 255.092 273.972 255.213C273.966 255.334 274.002 255.453 274.072 255.548C274.142 255.642 274.242 255.705 274.352 255.725L294.233 256.818C294.353 256.822 294.47 256.775 294.558 256.687C294.646 256.598 294.698 256.476 294.704 256.346H294.675ZM285.314 272.333C285.321 272.269 285.316 272.203 285.299 272.141C285.282 272.078 285.254 272.02 285.217 271.969C285.179 271.919 285.132 271.877 285.079 271.846C285.026 271.816 284.968 271.797 284.908 271.791L269.704 270.164C269.645 270.157 269.586 270.164 269.529 270.182C269.472 270.201 269.419 270.232 269.374 270.273C269.328 270.313 269.29 270.364 269.262 270.421C269.235 270.478 269.217 270.54 269.212 270.604C269.202 270.733 269.239 270.861 269.314 270.961C269.39 271.061 269.499 271.125 269.617 271.139L284.821 272.773H284.865C284.982 272.782 285.097 272.741 285.186 272.659C285.276 272.577 285.332 272.46 285.343 272.333H285.314ZM266.236 280.853C266.337 280.781 266.407 280.669 266.431 280.541C266.456 280.413 266.433 280.279 266.367 280.17L258.852 267.837C258.783 267.731 258.679 267.658 258.561 267.633C258.444 267.608 258.322 267.633 258.222 267.704C258.121 267.776 258.051 267.888 258.027 268.016C258.002 268.145 258.025 268.278 258.091 268.388L265.606 280.72C265.649 280.787 265.707 280.842 265.774 280.881C265.84 280.919 265.915 280.939 265.99 280.94C266.088 280.946 266.185 280.915 266.265 280.853H266.236ZM283.482 284.98C283.48 284.851 283.433 284.727 283.349 284.635C283.265 284.543 283.152 284.489 283.033 284.485L265.158 284.304C265.039 284.304 264.924 284.355 264.84 284.447C264.756 284.538 264.709 284.662 264.709 284.791C264.707 284.856 264.717 284.921 264.739 284.982C264.761 285.042 264.793 285.097 264.835 285.143C264.877 285.19 264.928 285.226 264.983 285.251C265.038 285.276 265.098 285.288 265.158 285.287L283.033 285.467C283.094 285.47 283.155 285.46 283.213 285.437C283.27 285.414 283.323 285.379 283.367 285.334C283.412 285.288 283.448 285.233 283.472 285.173C283.497 285.112 283.51 285.046 283.511 284.98H283.482ZM259.496 313.999C259.532 313.913 262.58 304.795 271.746 302.618C271.864 302.59 271.967 302.512 272.032 302.401C272.097 302.291 272.119 302.157 272.094 302.028C272.064 301.903 271.992 301.794 271.89 301.725C271.789 301.656 271.667 301.633 271.551 301.659C261.885 303.954 258.678 313.583 258.642 313.677C258.604 313.801 258.613 313.936 258.666 314.053C258.718 314.171 258.811 314.261 258.924 314.306H259.069C259.165 314.315 259.261 314.29 259.344 314.234C259.426 314.179 259.489 314.097 259.525 313.999H259.496ZM261.53 321.207C261.65 321.197 261.761 321.136 261.84 321.037C261.919 320.939 261.958 320.81 261.95 320.68C260.814 302.146 267.417 271.791 278.009 246.875C284.778 230.95 311.313 199.652 311.595 199.337C311.68 199.245 311.728 199.119 311.728 198.988C311.728 198.857 311.68 198.731 311.595 198.638C311.553 198.592 311.504 198.556 311.449 198.531C311.394 198.507 311.336 198.494 311.276 198.494C311.217 198.494 311.159 198.507 311.104 198.531C311.049 198.556 311 198.592 310.958 198.638C310.69 198.952 284.047 230.369 277.219 246.435C266.432 271.956 259.916 301.761 261.074 320.743C261.083 320.868 261.135 320.985 261.219 321.071C261.304 321.157 261.415 321.205 261.53 321.207ZM283.185 236.672C283.305 236.664 283.417 236.605 283.497 236.508C283.577 236.411 283.618 236.284 283.612 236.154L281.882 204.36C281.879 204.295 281.865 204.232 281.839 204.173C281.813 204.115 281.777 204.062 281.733 204.019C281.688 203.976 281.636 203.943 281.58 203.922C281.523 203.901 281.464 203.892 281.404 203.896C281.284 203.904 281.172 203.963 281.093 204.06C281.013 204.158 280.971 204.285 280.977 204.415L282.736 236.193C282.742 236.318 282.792 236.436 282.875 236.522C282.959 236.609 283.07 236.657 283.185 236.657V236.672ZM277.784 247.118C277.893 247.065 277.978 246.968 278.021 246.847C278.064 246.727 278.062 246.593 278.016 246.474L266.888 219.145C266.84 219.026 266.75 218.933 266.639 218.885C266.528 218.838 266.404 218.841 266.294 218.893C266.185 218.945 266.099 219.042 266.056 219.163C266.012 219.284 266.015 219.419 266.063 219.538L277.183 246.867C277.218 246.955 277.276 247.029 277.349 247.082C277.422 247.135 277.508 247.164 277.596 247.166C277.671 247.17 277.746 247.154 277.813 247.118H277.784ZM279.71 243.346L306.346 239.211C306.41 239.21 306.474 239.194 306.532 239.164C306.59 239.134 306.642 239.091 306.683 239.038C306.725 238.985 306.756 238.923 306.774 238.856C306.792 238.789 306.797 238.718 306.788 238.649C306.78 238.58 306.758 238.513 306.724 238.454C306.689 238.395 306.644 238.344 306.591 238.305C306.537 238.266 306.477 238.24 306.414 238.228C306.35 238.216 306.285 238.219 306.223 238.237L279.587 242.371C279.468 242.379 279.357 242.439 279.278 242.536C279.199 242.633 279.159 242.76 279.167 242.89C279.175 243.019 279.229 243.14 279.319 243.225C279.409 243.311 279.526 243.354 279.645 243.346H279.71ZM272.115 261.793C272.21 261.712 272.271 261.594 272.286 261.465C272.301 261.335 272.268 261.205 272.195 261.101L257.758 240.964C257.722 240.912 257.676 240.869 257.624 240.837C257.572 240.804 257.515 240.783 257.455 240.775C257.396 240.766 257.335 240.771 257.277 240.788C257.219 240.805 257.165 240.834 257.118 240.874C257.07 240.913 257.03 240.963 257 241.019C256.97 241.076 256.951 241.138 256.943 241.203C256.936 241.267 256.94 241.333 256.955 241.396C256.971 241.459 256.998 241.518 257.034 241.569L271.5 261.738C271.542 261.797 271.596 261.844 271.657 261.877C271.719 261.91 271.786 261.927 271.855 261.927C271.963 261.921 272.065 261.873 272.144 261.793H272.115ZM294.675 256.346C294.679 256.216 294.636 256.089 294.554 255.994C294.473 255.898 294.36 255.841 294.241 255.835L274.396 254.743C274.284 254.751 274.18 254.803 274.101 254.89C274.023 254.977 273.977 255.092 273.972 255.213C273.966 255.334 274.002 255.453 274.072 255.548C274.142 255.642 274.242 255.705 274.352 255.725L294.233 256.818C294.353 256.822 294.47 256.775 294.558 256.687C294.646 256.598 294.698 256.476 294.704 256.346H294.675ZM285.314 272.333C285.321 272.269 285.316 272.203 285.299 272.141C285.282 272.078 285.254 272.02 285.217 271.969C285.179 271.919 285.132 271.877 285.079 271.846C285.026 271.816 284.968 271.797 284.908 271.791L269.704 270.164C269.645 270.157 269.586 270.164 269.529 270.182C269.472 270.201 269.419 270.232 269.374 270.273C269.328 270.313 269.29 270.364 269.262 270.421C269.235 270.478 269.217 270.54 269.212 270.604C269.202 270.733 269.239 270.861 269.314 270.961C269.39 271.061 269.499 271.125 269.617 271.139L284.821 272.773H284.865C284.982 272.782 285.097 272.741 285.186 272.659C285.276 272.577 285.332 272.46 285.343 272.333H285.314ZM266.236 280.853C266.337 280.781 266.407 280.669 266.431 280.541C266.456 280.413 266.433 280.279 266.367 280.17L258.852 267.837C258.783 267.731 258.679 267.658 258.561 267.633C258.444 267.608 258.322 267.633 258.222 267.704C258.121 267.776 258.051 267.888 258.027 268.016C258.002 268.145 258.025 268.278 258.091 268.388L265.606 280.72C265.649 280.787 265.707 280.842 265.774 280.881C265.84 280.919 265.915 280.939 265.99 280.94C266.088 280.946 266.185 280.915 266.265 280.853H266.236ZM283.482 284.98C283.48 284.851 283.433 284.727 283.349 284.635C283.265 284.543 283.152 284.489 283.033 284.485L265.158 284.304C265.039 284.304 264.924 284.355 264.84 284.447C264.756 284.538 264.709 284.662 264.709 284.791C264.707 284.856 264.717 284.921 264.739 284.982C264.761 285.042 264.793 285.097 264.835 285.143C264.877 285.19 264.928 285.226 264.983 285.251C265.038 285.276 265.098 285.288 265.158 285.287L283.033 285.467C283.094 285.47 283.155 285.46 283.213 285.437C283.27 285.414 283.323 285.379 283.367 285.334C283.412 285.288 283.448 285.233 283.472 285.173C283.497 285.112 283.51 285.046 283.511 284.98H283.482ZM259.496 313.999C259.532 313.913 262.58 304.795 271.746 302.618C271.864 302.59 271.967 302.512 272.032 302.401C272.097 302.291 272.119 302.157 272.094 302.028C272.064 301.903 271.992 301.794 271.89 301.725C271.789 301.656 271.667 301.633 271.551 301.659C261.885 303.954 258.678 313.583 258.642 313.677C258.604 313.801 258.613 313.936 258.666 314.053C258.718 314.171 258.811 314.261 258.924 314.306H259.069C259.165 314.315 259.261 314.29 259.344 314.234C259.426 314.179 259.489 314.097 259.525 313.999H259.496Z" fill="black"/>
<path id="Vector_26" d="M273.353 307.35H252.856V311.956H254.645L258.344 337.084H267.865L271.565 311.956H273.353V307.35Z" fill="#5F483B"/>
<path id="Vector_27" opacity="0.3" d="M273.353 307.35H252.856V311.956H254.645L258.344 337.084H267.865L271.565 311.956H273.353V307.35Z" fill="#5F483B"/>
</g>
<g id="freepik--Character--inject-1--inject-45">
<path id="Vector_28" d="M88.8202 168.07L64.9789 159.621L62.8575 153.537L58.014 153.372L49.2246 151.564L50.2816 153.537L61.3444 162.254L64.0739 163.732L89.0084 177.872L88.8202 168.07Z" fill="white" stroke="#263238" stroke-width="1.00396" stroke-miterlimit="10"/>
<path id="Vector_29" d="M62.8578 153.537L60.5844 152.06L56.0449 153.867L56.7979 154.85L62.8578 153.537Z" fill="white" stroke="#263238" stroke-width="1.00396" stroke-linejoin="round"/>
<path id="Vector_30" d="M88.8202 168.07L64.9789 159.621L62.8575 153.537L58.014 153.372L49.2246 151.564L50.2816 153.537L61.3444 162.254L64.0739 163.732L89.0084 177.872L88.8202 168.07Z" fill="white"/>
<g id="Clip path group">
<mask id="mask0_99_527" style="mask-type:luminance" maskUnits="userSpaceOnUse" x="49" y="151" width="41" height="27">
<g id="freepik--clip-path--inject-1--inject-45">
<path id="Vector_31" d="M88.8202 168.07L64.9789 159.621L62.8575 153.537L58.014 153.372L49.2246 151.564L50.2816 153.537L61.3444 162.254L64.0739 163.732L89.0084 177.872L88.8202 168.07Z" fill="white"/>
</g>
</mask>
<g mask="url(#mask0_99_527)">
<g id="Group_2">
<path id="Vector_32" opacity="0.5" d="M88.8202 168.07L64.9789 159.621L62.8575 153.537L58.014 153.372L49.2246 151.564L50.2816 153.537L61.3444 162.254L64.0739 163.732L89.0084 177.872L88.8202 168.07Z" fill="#5F483B" stroke="#263238" stroke-width="1.00396" stroke-miterlimit="10"/>
</g>
</g>
</g>
<path id="Vector_33" d="M88.8202 168.07L64.9789 159.621L62.8575 153.537L58.014 153.372L49.2246 151.564L50.2816 153.537L61.3444 162.254L64.0739 163.732L89.0084 177.872L88.8202 168.07Z" stroke="#263238" stroke-width="1.00396" stroke-miterlimit="10"/>
<path id="Vector_34" d="M62.8578 153.537L60.5844 152.06L56.0449 153.867L56.7979 154.85L62.8578 153.537Z" fill="#ADA7A7"/>
<g id="Clip path group_2">
<mask id="mask1_99_527" style="mask-type:luminance" maskUnits="userSpaceOnUse" x="56" y="152" width="7" height="3">
<g id="freepik--clip-path-2--inject-1--inject-45">
<path id="Vector_35" d="M62.8578 153.537L60.5844 152.06L56.0449 153.867L56.7979 154.85L62.8578 153.537Z" fill="white"/>
</g>
</mask>
<g mask="url(#mask1_99_527)">
<g id="Group_3">
<path id="Vector_36" opacity="0.5" d="M62.8578 153.537L60.5844 152.06L56.0449 153.867L56.7979 154.85L62.8578 153.537Z" fill="#5F483B" stroke="#263238" stroke-width="1.00396" stroke-linejoin="round"/>
</g>
</g>
</g>
<path id="Vector_37" d="M62.8578 153.537L60.5844 152.06L56.0449 153.867L56.7979 154.85L62.8578 153.537Z" stroke="#263238" stroke-width="1.00396" stroke-linejoin="round"/>
<path id="Vector_38" d="M93.8808 113.231C93.8808 113.231 93.5116 116.768 94.4311 119.04C95.3505 121.311 100.455 129.006 100.455 129.006L90.9269 137.298C90.9269 137.298 86.9739 128.652 86.2209 127.253C85.4679 125.854 84.5629 119.834 87.0173 115.518C89.4717 111.203 93.0048 110.04 93.8808 113.231Z" fill="white"/>
<g id="Clip path group_3">
<mask id="mask2_99_527" style="mask-type:luminance" maskUnits="userSpaceOnUse" x="85" y="111" width="16" height="27">
<g id="freepik--clip-path-3--inject-1--inject-45">
<path id="Vector_39" d="M93.8808 113.231C93.8808 113.231 93.5116 116.768 94.4311 119.04C95.3505 121.311 100.455 129.006 100.455 129.006L90.9269 137.298C90.9269 137.298 86.9739 128.652 86.2209 127.253C85.4679 125.854 84.5629 119.834 87.0173 115.518C89.4717 111.203 93.0048 110.04 93.8808 113.231Z" fill="white"/>
</g>
</mask>
<g mask="url(#mask2_99_527)">
<g id="Group_4">
<g id="Vector_40" style="mix-blend-mode:multiply" opacity="0.5">
<path d="M88.9864 124.597L93.1204 133.903L90.9194 137.306L86.7637 129.25L88.9864 124.597Z" fill="#5F483B"/>
</g>
</g>
</g>
</g>
<path id="Vector_41" d="M93.8808 113.231C93.8808 113.231 93.5116 116.768 94.4311 119.04C95.3505 121.311 100.455 129.006 100.455 129.006L90.9269 137.298C90.9269 137.298 86.9739 128.652 86.2209 127.253C85.4679 125.854 84.5629 119.834 87.0173 115.518C89.4717 111.203 93.0048 110.04 93.8808 113.231Z" stroke="#263238" stroke-width="1.00396" stroke-miterlimit="10"/>
<path id="Vector_42" d="M96.8346 106.754C96.2482 102.824 92.0997 94.8308 85.5185 95.1374C81.2469 95.3417 79.2487 96.2771 77.3952 97.4168C75.8844 98.3831 74.4762 99.5271 73.196 100.828C69.9815 105.017 68.852 106.165 69.4747 109.372C69.4236 110.651 69.6082 111.928 70.0177 113.129C71.0023 115.982 71.6756 117.845 72.53 119.205C72.2693 120.533 71.5888 124.039 71.5526 124.84C71.5164 125.642 73.7246 125.084 74.8395 124.777C76.9102 129.808 80.7039 133.298 81.884 133.699C83.9402 134.398 87.191 130.727 88.9141 127.882C90.6372 125.037 89.334 121.838 89.3412 120.564C89.3485 119.291 93.2146 116.493 94.6482 115.605C96.0817 114.717 97.4138 110.677 96.8346 106.754Z" fill="white"/>
<g id="Clip path group_4">
<mask id="mask3_99_527" style="mask-type:luminance" maskUnits="userSpaceOnUse" x="69" y="95" width="28" height="39">
<g id="freepik--clip-path-4--inject-1--inject-45">
<path id="Vector_43" d="M96.8346 106.754C96.2482 102.824 92.0997 94.8308 85.5185 95.1374C81.2469 95.3417 79.2487 96.2771 77.3952 97.4168C75.8844 98.3831 74.4762 99.5271 73.196 100.828C69.9815 105.017 68.852 106.165 69.4747 109.372C69.4236 110.651 69.6082 111.928 70.0177 113.129C71.0023 115.982 71.6756 117.845 72.53 119.205C72.2693 120.533 71.5888 124.039 71.5526 124.84C71.5164 125.642 73.7246 125.084 74.8395 124.777C76.9102 129.808 80.7039 133.298 81.884 133.699C83.9402 134.398 87.191 130.727 88.9141 127.882C90.6372 125.037 89.334 121.838 89.3412 120.564C89.3485 119.291 93.2146 116.493 94.6482 115.605C96.0817 114.717 97.4138 110.677 96.8346 106.754Z" fill="white"/>
</g>
</mask>
<g mask="url(#mask3_99_527)">
<g id="Group_5">
<g id="Vector_44" style="mix-blend-mode:multiply" opacity="0.5">
<path d="M69.5039 109.372C69.4528 110.651 69.6374 111.928 70.0469 113.129C71.0315 115.982 71.7049 117.845 72.5592 119.205C72.2986 120.533 71.618 124.039 71.5818 124.84C71.5456 125.642 73.7538 125.084 74.8688 124.777C76.9394 129.808 80.7331 133.298 81.9133 133.699C83.9694 134.398 87.2202 130.727 88.9433 127.882C89.3738 127.172 89.6533 126.366 89.7614 125.524C89.6673 125.155 89.6022 124.927 89.6022 124.927C89.6022 124.927 88.632 128.975 86.7062 128.448C84.7803 127.921 81.8336 123.732 80.1902 122.286C78.5467 120.84 79.22 118.937 78.8942 116.784C78.5684 114.63 73.7031 112.736 73.3773 111.502C73.0515 110.268 74.1882 105.159 74.1882 105.159C74.1882 105.159 76.0344 102.486 75.6362 103.587C75.3547 104.541 75.2527 105.547 75.336 106.545C75.4193 107.542 75.6864 108.512 76.1213 109.395C76.4265 110.093 76.9106 110.679 77.5155 111.085C78.1204 111.491 78.8204 111.698 79.5313 111.683L81.2979 102.18L77.5693 98.8315L73.2253 100.797C69.9817 105.017 68.874 106.165 69.5039 109.372Z" fill="#5F483B"/>
</g>
</g>
</g>
</g>
<path id="Vector_45" d="M96.8346 106.754C96.2482 102.824 92.0997 94.8308 85.5185 95.1374C81.2469 95.3417 79.2487 96.2771 77.3952 97.4168C75.8844 98.3831 74.4762 99.5271 73.196 100.828C69.9815 105.017 68.852 106.165 69.4747 109.372C69.4236 110.651 69.6082 111.928 70.0177 113.129C71.0023 115.982 71.6756 117.845 72.53 119.205C72.2693 120.533 71.5888 124.039 71.5526 124.84C71.5164 125.642 73.7246 125.084 74.8395 124.777C76.9102 129.808 80.7039 133.298 81.884 133.699C83.9402 134.398 87.191 130.727 88.9141 127.882C90.6372 125.037 89.334 121.838 89.3412 120.564C89.3485 119.291 93.2146 116.493 94.6482 115.605C96.0817 114.717 97.4138 110.677 96.8346 106.754Z" stroke="#263238" stroke-miterlimit="10"/>
<path id="Vector_46" d="M73.4277 116.831L74.1517 119.079C74.1517 119.079 75.7083 119.637 77.6052 117.389" stroke="#263238" stroke-miterlimit="10" stroke-linecap="round"/>
<path id="Vector_47" d="M78.7783 127.332C78.7783 127.332 80.5014 127.143 81.1965 124.518" stroke="#263238" stroke-miterlimit="10" stroke-linecap="round"/>
<path id="Vector_48" d="M72.2188 114.952C72.2188 114.952 72.7328 113.263 75.8387 113.263" stroke="#263238" stroke-miterlimit="10" stroke-linecap="round"/>
<path id="Vector_49" d="M88.1396 92.0091C85.8827 91.6568 83.6067 91.4677 81.3267 91.4432C81.3267 91.4432 74.5066 87.1752 67.9544 91.7261C61.4022 96.2771 64.5517 104.247 64.5517 106.236C64.5517 108.224 62.452 108.232 63.7625 110.795C65.0729 113.357 69.5038 111.942 69.5038 111.942C69.5506 110.976 69.7859 110.031 70.194 109.171C70.6021 108.31 71.1738 107.554 71.8713 106.951C74.2315 104.962 76.1139 104.53 76.8958 105.104C76.8958 105.104 76.3746 109.372 77.1565 111.077C77.1565 111.077 79.7774 112.5 80.5665 112.5C81.3557 112.5 80.0525 113.703 82.6661 114.772C83.1423 114.957 83.6516 115.021 84.1541 114.956C84.6566 114.892 85.1386 114.703 85.5621 114.402C85.9458 112.673 86.7857 110.071 88.3495 110.677C90.6446 111.565 92.737 117.696 89.631 119.786C93.3668 120.525 97.8918 113.349 98.1597 106.809C98.4276 100.27 92.0202 92.7479 88.1396 92.0091Z" fill="#263238"/>
<path id="Vector_50" d="M77.0117 102.298C77.0117 102.298 78.9376 101.174 81.2978 103.579C83.658 105.984 88.2482 109.199 94.3298 107.43" stroke="white" stroke-width="0.5" stroke-linecap="round" stroke-linejoin="round"/>
<path id="Vector_51" d="M76.7441 100.372C76.7441 100.372 78.0691 98.1241 80.2845 98.1241C82.4999 98.1241 87.6765 101.496 91.8106 101.496" stroke="white" stroke-width="0.5" stroke-linecap="round" stroke-linejoin="round"/>
<path id="Vector_52" d="M75.2373 104.703C75.2373 104.703 72.7251 101.339 70.3648 104.066C68.0046 106.794 69.5033 109.372 69.5033 109.372" stroke="white" stroke-width="0.5" stroke-linecap="round" stroke-linejoin="round"/>
<path id="Vector_53" d="M65.1963 106.951C66.636 105.541 67.5309 103.593 67.7013 101.496C67.9982 97.9669 72.4363 94.9172 75.2382 97.8097" stroke="white" stroke-width="0.5" stroke-linecap="round" stroke-linejoin="round"/>
<path id="Vector_54" d="M69.7715 94.1156C69.7715 94.1156 74.2096 89.4625 77.902 95.3968" stroke="white" stroke-width="0.5" stroke-linecap="round" stroke-linejoin="round"/>
<path id="Vector_55" d="M105.892 322.897C105.892 322.897 108.621 327.503 108.317 330.466L108.02 333.429C108.02 333.429 98.0076 336.408 95.8863 336.408C93.7649 336.408 82.5357 335.253 82.5357 335.253L82.0506 333.162C82.0167 333.007 82.0327 332.845 82.0959 332.702C82.1592 332.559 82.2659 332.444 82.3981 332.376L92.4111 327.306L95.5677 323.557L105.892 322.897Z" fill="white" stroke="#263238" stroke-width="1.00396" stroke-miterlimit="10"/>
<path id="Vector_56" d="M97.407 334.089C100.122 334.317 105.277 332.517 108.267 331.37L108.057 333.429C108.057 333.429 98.0079 336.408 95.8866 336.408C93.7652 336.408 82.536 335.252 82.536 335.252L82.1885 333.759C83.984 333.767 93.8159 333.791 97.407 334.089Z" fill="#930000" stroke="#263238" stroke-width="1.00396" stroke-miterlimit="10"/>
<path id="Vector_57" d="M92.4254 327.306L77.8513 334.191C77.8513 334.191 76.606 337.579 77.8513 338.255C79.0966 338.931 106.247 338.255 106.247 338.255C106.247 338.255 108.122 332.902 105.161 329.31C102.199 325.718 92.4254 327.306 92.4254 327.306Z" fill="white" stroke="#263238" stroke-width="1.00396" stroke-miterlimit="10"/>
<path id="Vector_58" d="M106.247 338.255C106.247 338.255 79.0967 338.931 77.8515 338.255C77.2505 337.925 77.2288 336.974 77.3664 336.07H106.725C106.629 336.813 106.469 337.545 106.247 338.255Z" fill="#930000" stroke="#263238" stroke-width="1.00396" stroke-miterlimit="10"/>
<path id="Vector_59" d="M85.5326 207.669C85.5326 207.669 81.7244 225.991 80.2836 237.451C78.8429 248.91 77.9958 271.869 78.2999 274.503C78.604 277.136 93.7645 321.254 93.7645 321.254L95.2777 325.184L105.892 322.881C105.892 322.881 101.041 306.092 99.2235 296.872C97.4062 287.652 93.4315 272.506 93.4315 269.873C93.4315 267.24 102.843 216.952 103.517 213.65C104.19 210.349 107.245 205.28 107.245 205.28L86.9227 204.832L85.5326 207.669Z" fill="#5F483B" stroke="#263238" stroke-width="1.00396" stroke-miterlimit="10"/>
<path id="Vector_60" d="M85.5328 207.669C85.5328 207.669 83.3028 224.403 84.2223 236.036C85.1418 247.669 87.1183 272.435 87.1183 276.122C87.1183 279.808 92.599 301.824 92.9103 308.741C93.3954 318.731 92.7148 323.675 92.7148 323.675L92.389 327.298C92.389 327.298 98.7819 328.289 100.179 328.721C101.793 329.172 103.459 329.368 105.124 329.302C105.124 329.302 107.448 318.196 107.448 308.733C107.448 299.269 105.515 279.792 104.552 271.901C103.589 264.009 106.623 233.568 108.346 227.885C110.069 222.202 113.834 210.168 111.3 204.022C108.766 197.875 85.5328 207.669 85.5328 207.669Z" fill="#5F483B" stroke="#263238" stroke-width="1.00396" stroke-miterlimit="10"/>
<path id="Vector_61" d="M114.116 200.941L113.884 208.424C113.884 208.424 109.758 209.312 104.197 210.357C99.6072 211.222 88.0811 210.129 84.2004 209.72C83.8468 209.686 83.5199 209.502 83.2907 209.208C83.0616 208.913 82.9488 208.533 82.9769 208.148L83.3534 201.389L114.116 200.941Z" fill="#263238"/>
<path id="Vector_62" d="M97.986 126.349C97.986 126.349 91.47 133.997 89.0157 138.753C86.5613 143.508 85.5912 150.794 84.6717 156.532C83.7522 162.27 86.2428 175.742 85.5405 181.928L83.3178 201.412C83.3178 201.412 82.84 202.733 84.44 204.179C86.04 205.625 93.852 206.152 100.911 206.537C103.488 206.679 111.185 204.879 112.444 204.792C113.965 204.69 114.015 202.591 114.081 200.941C114.385 193.183 115.673 172.503 116.52 163.496C118.265 145.127 108.716 127.395 97.986 126.349Z" fill="#E1D6AC" stroke="#263238" stroke-width="1.00396" stroke-miterlimit="10"/>
<g id="Vector_63" style="mix-blend-mode:multiply">
<path d="M115.724 173.942C116.013 169.862 116.303 166.16 116.556 163.496C116.629 162.71 116.672 161.924 116.708 161.138L99.3973 164.282L84.5264 158.78C84.528 162.12 84.702 165.458 85.0476 168.778L99.6362 173.211L115.724 173.942Z" fill="#930000"/>
</g>
<g id="Vector_64" style="mix-blend-mode:multiply">
<path d="M97.3411 127.12C96.3565 128.307 94.4017 130.72 92.541 133.282L103.531 145.41L107.151 143.838L97.3411 127.12Z" fill="#930000"/>
</g>
<path id="Vector_65" d="M97.9855 126.349C97.9855 126.349 91.4695 133.997 89.0152 138.753C88.2874 140.198 87.6979 141.72 87.2559 143.296L100.36 126.86C99.5861 126.606 98.7907 126.435 97.9855 126.349Z" fill="#263238"/>
<g id="Vector_66" style="mix-blend-mode:multiply">
<path d="M85.1787 153.435L99.3981 158.513L116.665 156.359C116.395 151.689 115.439 147.096 113.835 142.753L99.9121 148.813L87.4665 142.69C86.4489 146.202 85.684 149.795 85.1787 153.435Z" fill="#930000"/>
</g>
<g id="Vector_67" style="mix-blend-mode:multiply">
<path d="M109.657 193.183C102.445 194.498 95.0446 193.841 88.1248 191.273L84.6569 189.984L83.5781 199.416L87.5312 200.619C95.0461 202.9 102.9 203.557 110.648 202.552L113.841 202.136C114.007 201.754 114.101 201.339 114.116 200.917C114.203 198.819 114.355 195.769 114.551 192.271L109.657 193.183Z" fill="#930000"/>
</g>
<g id="Vector_68" style="mix-blend-mode:multiply">
<path d="M111.59 180.34C104.378 181.66 96.9758 181 90.0581 178.422L85.6417 176.779C85.7513 178.492 85.7295 180.211 85.5765 181.92L85.0625 186.455L89.4644 187.791C96.9764 190.074 104.828 190.734 112.575 189.732L114.747 189.449C114.928 186.305 115.137 182.957 115.362 179.648L111.59 180.34Z" fill="#930000"/>
</g>
<path id="Vector_69" d="M43.6653 147.101L57.6641 159.321L58.2674 158.506L44.2686 146.287L43.6653 147.101Z" fill="#263238"/>
<path id="Vector_70" d="M104.726 134.83C104.726 134.83 109.86 138.627 109.975 147.595C110.026 151.525 109.65 155.196 108.817 161.633C107.984 168.07 102.815 189.033 98.7896 191.58C94.7641 194.126 88.516 189.316 88.516 189.316L58.2963 167.536L50.9911 161.13L47.3711 153.71L48.5078 151.352L57.4202 158.772L52.6201 153.954L53.5613 152.657L55.2989 153.969L60.3669 156.029L61.4746 163.889L63.0385 165.052L91.9478 176.52C91.9478 176.52 91.5858 159.629 91.8537 156.398C92.1215 153.168 92.4908 145.048 95.6764 139.161" fill="white"/>
<g id="Clip path group_5">
<mask id="mask4_99_527" style="mask-type:luminance" maskUnits="userSpaceOnUse" x="47" y="134" width="63" height="59">
<g id="freepik--clip-path-5--inject-1--inject-45">
<path id="Vector_71" d="M104.726 134.83C104.726 134.83 109.86 138.627 109.975 147.595C110.026 151.525 109.65 155.196 108.817 161.633C107.984 168.07 102.815 189.033 98.7896 191.58C94.7641 194.126 88.516 189.316 88.516 189.316L58.2963 167.536L50.9911 161.13L47.3711 153.71L48.5078 151.352L57.4202 158.772L52.6201 153.954L53.5613 152.657L55.2989 153.969L60.3669 156.029L61.4746 163.889L63.0385 165.052L91.9478 176.52C91.9478 176.52 91.5858 159.629 91.8537 156.398C92.1215 153.168 92.4908 145.048 95.6764 139.161" fill="white"/>
</g>
</mask>
<g mask="url(#mask4_99_527)">
<g id="Group_6">
<g id="Vector_72" style="mix-blend-mode:multiply" opacity="0.5">
<path d="M91.7448 163.755C91.7448 169.587 91.9258 176.52 91.9258 176.52L63.0454 165.099L61.4815 163.936L60.3738 156.076L55.3058 154.017L53.5755 152.68L52.6343 153.977L57.4199 158.772L48.5075 151.352L47.4287 153.671L51.0487 161.091L58.3539 167.536L60.1928 168.864L100.121 182.831L91.7448 163.755Z" fill="#5F483B"/>
</g>
</g>
</g>
</g>
<path id="Vector_73" d="M104.726 134.83C104.726 134.83 109.86 138.627 109.975 147.595C110.026 151.525 109.65 155.196 108.817 161.633C107.984 168.07 102.815 189.033 98.7896 191.58C94.7641 194.126 88.516 189.316 88.516 189.316L58.2963 167.536L50.9911 161.13L47.3711 153.71L48.5078 151.352L57.4202 158.772L52.6201 153.954L53.5613 152.657L55.2989 153.969L60.3669 156.029L61.4746 163.889L63.0385 165.052L91.9478 176.52C91.9478 176.52 91.5858 159.629 91.8537 156.398C92.1215 153.168 92.4908 145.048 95.6764 139.161" stroke="#263238" stroke-width="1.00396" stroke-miterlimit="10"/>
<path id="Vector_74" d="M91.9474 176.52L102.981 185.166L105.841 179.664C105.841 179.664 107.817 177.974 108.107 176.701C108.397 175.427 108.027 173.36 108.324 172.087C108.621 170.813 110.098 169.619 110.236 166.538C110.373 163.456 110.236 160.886 110.236 160.886C110.236 160.886 112.625 150.22 112.364 145.583C112.104 140.945 107.984 132.747 104.683 132.567C101.381 132.386 97.0878 132.928 93.7574 138.399C90.427 143.869 91.1075 159.841 90.5862 160.839C90.065 161.837 90.789 166.766 90.789 166.766C90.4996 167 90.2595 167.298 90.0848 167.641C89.91 167.984 89.8045 168.364 89.7754 168.754C89.7174 170.035 90.9917 173.187 90.9917 173.187L91.9474 176.52Z" fill="#E1D6AC" stroke="#263238" stroke-width="1.00396" stroke-miterlimit="10"/>
<g id="Vector_75" style="mix-blend-mode:multiply">
<path d="M90.8758 156.736C90.8985 158.108 90.804 159.479 90.5934 160.831C90.1301 161.727 90.6586 165.775 90.7744 166.601C96.9804 168.693 103.543 169.231 109.968 168.173C110.106 167.626 110.188 167.064 110.214 166.498C110.359 163.425 110.214 160.847 110.214 160.847C110.214 160.847 110.424 159.896 110.713 158.45C104.059 158.909 97.3792 158.332 90.8758 156.736Z" fill="#930000"/>
</g>
<g id="Vector_76" style="mix-blend-mode:multiply">
<path d="M93.3089 139.271C92.2736 141.527 91.6944 144.915 91.3613 148.35C97.9339 151.073 105.02 152.009 112.003 151.077C112.281 149.259 112.405 147.417 112.372 145.575C112.246 144.119 111.929 142.689 111.431 141.331C105.334 141.485 99.244 140.793 93.3089 139.271Z" fill="#930000"/>
</g>
<path id="Vector_77" d="M90.9922 173.274L91.9261 176.52L102.96 185.166L105.82 179.664C105.82 179.664 107.796 177.974 108.086 176.701C108.137 176.479 108.169 176.253 108.18 176.025C102.365 175.916 96.5883 174.991 90.9922 173.274Z" fill="#930000"/>
<path id="Vector_78" d="M98.9773 328.619C98.9773 328.619 99.2235 321.812 100.425 311.861C101.627 301.91 98.7384 287.778 98.2533 285.42C97.7682 283.062 98.4995 277.827 98.0144 275.988C97.5293 274.149 95.1835 266.305 96.5664 257.203C97.9492 248.101 99.0714 224.041 99.0714 224.041C99.0714 224.041 95.589 220.968 94.5681 216.967C93.5473 212.967 94.3292 211.709 94.3292 211.709" stroke="#263238" stroke-width="1.00396" stroke-miterlimit="10"/>
<path id="Vector_79" d="M100.592 212.078L99.2529 220.127" stroke="#263238" stroke-width="1.00396" stroke-miterlimit="10"/>
</g>
</g>
</svg>
