<svg xmlns="http://www.w3.org/2000/svg" width="800" height="600" viewBox="0 0 800 600"><rect width="100%" height="100%" fill="#DDDDDD"/><path fill="#999999" d="M221.74 249.995h13.39v81.7h-7.8q-1.8 0-3.02-.59-1.21-.6-2.34-2.01l-42.66-54.47q.34 3.73.34 6.9v50.17h-13.39v-81.7h7.96q.97 0 1.67.09.71.08 1.24.33.54.26 1.05.74t1.13 1.27l42.83 54.69q-.17-1.97-.29-3.9-.11-1.92-.11-3.56v-49.66Zm55.03 22.83q6.44 0 11.73 2.09 5.28 2.09 9.04 5.93 3.75 3.84 5.79 9.38 2.03 5.54 2.03 12.37 0 6.9-2.03 12.43-2.04 5.54-5.79 9.44-3.76 3.9-9.04 5.99-5.29 2.09-11.73 2.09-6.5 0-11.81-2.09-5.31-2.09-9.06-5.99-3.76-3.9-5.82-9.44-2.07-5.53-2.07-12.43 0-6.83 2.07-12.37 2.06-5.54 5.82-9.38 3.75-3.84 9.06-5.93 5.31-2.09 11.81-2.09Zm0 48.98q7.23 0 10.71-4.86 3.47-4.86 3.47-14.23 0-9.38-3.47-14.3-3.48-4.91-10.71-4.91-7.34 0-10.87 4.94-3.54 4.94-3.54 14.27 0 9.32 3.54 14.21 3.53 4.88 10.87 4.88Zm67.18-48.08h14.01v57.97h-14.01v-57.97Zm15.93-16.89q0 1.81-.73 3.39-.74 1.58-1.95 2.77-1.21 1.18-2.85 1.89-1.64.7-3.51.7-1.8 0-3.41-.7-1.61-.71-2.8-1.89-1.19-1.19-1.89-2.77-.71-1.58-.71-3.39 0-1.87.71-3.51.7-1.63 1.89-2.82t2.8-1.89q1.61-.71 3.41-.71 1.87 0 3.51.71 1.64.7 2.85 1.89 1.21 1.19 1.95 2.82.73 1.64.73 3.51Zm26.28 74.86H372.2v-57.97h8.53q2.71 0 3.56 2.54l.91 4.3q1.52-1.7 3.19-3.11 1.66-1.41 3.56-2.43 1.89-1.02 4.07-1.61 2.17-.59 4.77-.59 5.48 0 9.01 2.96 3.53 2.97 5.28 7.89 1.36-2.89 3.39-4.95 2.04-2.06 4.47-3.36 2.43-1.3 5.17-1.92 2.74-.62 5.51-.62 4.8 0 8.53 1.47 3.73 1.46 6.27 4.29 2.54 2.82 3.87 6.89t1.33 9.33v36.89h-13.96v-36.89q0-5.54-2.43-8.34-2.43-2.79-7.12-2.79-2.14 0-3.98.73-1.84.73-3.22 2.12-1.38 1.38-2.18 3.47-.79 2.09-.79 4.81v36.89h-14.01v-36.89q0-5.82-2.34-8.48-2.35-2.65-6.87-2.65-3.05 0-5.68 1.49-2.62 1.5-4.88 4.1v42.43Zm111.3-14.97v-9.78q-6.04.29-10.17 1.05-4.12.76-6.61 1.95-2.49 1.18-3.56 2.77-1.07 1.58-1.07 3.44 0 3.67 2.17 5.26 2.18 1.58 5.68 1.58 4.3 0 7.43-1.55 3.14-1.56 6.13-4.72Zm-29.49-30.46-2.49-4.46q10-9.15 24.07-9.15 5.09 0 9.1 1.66 4.01 1.67 6.78 4.64 2.77 2.96 4.21 7.09 1.44 4.12 1.44 9.04v36.61h-6.33q-1.98 0-3.05-.59-1.07-.6-1.7-2.4l-1.24-4.19q-2.2 1.98-4.29 3.48t-4.35 2.51q-2.26 1.02-4.83 1.56-2.58.53-5.68.53-3.68 0-6.78-.98-3.11-.99-5.37-2.97-2.26-1.98-3.5-4.92-1.25-2.93-1.25-6.83 0-2.21.74-4.38.73-2.18 2.4-4.15 1.67-1.98 4.32-3.73 2.66-1.76 6.53-3.05 3.87-1.3 9.01-2.12 5.14-.82 11.75-.99v-3.39q0-5.82-2.48-8.62-2.49-2.79-7.18-2.79-3.39 0-5.62.79t-3.93 1.78q-1.69.98-3.08 1.78-1.38.79-3.08.79-1.47 0-2.48-.77-1.02-.76-1.64-1.78Zm77.4 15.03q2.6 0 4.52-.7 1.92-.71 3.2-1.95 1.27-1.25 1.92-3 .65-1.75.65-3.84 0-4.29-2.57-6.81-2.58-2.51-7.72-2.51t-7.71 2.51q-2.57 2.52-2.57 6.81 0 2.03.65 3.79.65 1.75 1.92 3.02t3.22 1.98q1.95.7 4.49.7Zm15.77 33q0-1.7-1.02-2.77t-2.77-1.67q-1.75-.59-4.1-.87-2.34-.28-4.97-.43-2.62-.14-5.42-.25-2.8-.11-5.45-.45-2.32 1.3-3.76 3.05-1.44 1.75-1.44 4.07 0 1.52.76 2.85t2.43 2.29q1.67.96 4.32 1.5 2.66.53 6.5.53 3.9 0 6.72-.59 2.83-.59 4.67-1.64 1.83-1.04 2.68-2.49.85-1.44.85-3.13Zm-2.77-58.59h16.67v5.2q0 2.48-3 3.05l-5.2.96q1.19 2.99 1.19 6.55 0 4.3-1.72 7.77-1.73 3.48-4.78 5.91-3.05 2.42-7.2 3.75t-8.96 1.33q-1.69 0-3.27-.17-1.59-.17-3.11-.45-2.71 1.64-2.71 3.67 0 1.75 1.61 2.57 1.61.82 4.26 1.16 2.66.34 6.05.42 3.39.09 6.95.37t6.95.99q3.39.71 6.04 2.23 2.66 1.53 4.27 4.15 1.61 2.63 1.61 6.76 0 3.84-1.89 7.45-1.9 3.62-5.48 6.45-3.59 2.82-8.82 4.54-5.22 1.73-11.89 1.73-6.56 0-11.41-1.27-4.86-1.28-8.08-3.39-3.22-2.12-4.81-4.89-1.58-2.77-1.58-5.77 0-4.06 2.46-6.8t6.75-4.38q-2.32-1.19-3.67-3.17-1.36-1.97-1.36-5.19 0-1.3.48-2.69.48-1.38 1.41-2.74.94-1.35 2.35-2.57 1.41-1.21 3.33-2.17-4.4-2.38-6.92-6.33-2.51-3.96-2.51-9.27 0-4.29 1.72-7.77 1.72-3.47 4.8-5.93 3.08-2.46 7.29-3.76 4.21-1.3 9.18-1.3 3.73 0 7.01.77 3.28.76 5.99 2.23Zm36.5 20.34h26.33q0-2.71-.77-5.11-.76-2.41-2.29-4.21-1.52-1.81-3.87-2.86-2.34-1.04-5.45-1.04-6.04 0-9.52 3.44-3.47 3.45-4.43 9.78Zm35.59 8.42h-35.88q.34 4.46 1.59 7.71 1.24 3.25 3.27 5.37 2.04 2.12 4.83 3.16 2.8 1.05 6.19 1.05 3.39 0 5.85-.79 2.46-.8 4.29-1.76 1.84-.96 3.22-1.75 1.39-.79 2.69-.79 1.75 0 2.6 1.3l4.01 5.09q-2.32 2.71-5.2 4.54-2.88 1.84-6.02 2.94-3.13 1.1-6.38 1.56-3.25.45-6.3.45-6.05 0-11.25-2.01-5.19-2-9.04-5.93-3.84-3.93-6.04-9.72-2.2-5.79-2.2-13.42 0-5.93 1.92-11.16 1.92-5.22 5.51-9.09 3.58-3.87 8.75-6.13t11.67-2.26q5.48 0 10.11 1.75 4.64 1.75 7.97 5.11 3.33 3.36 5.23 8.25 1.89 4.89 1.89 11.16 0 3.16-.68 4.27-.68 1.1-2.6 1.1Z"/></svg>